<svg xmlns="http://www.w3.org/2000/svg" xmlns:xlink="http://www.w3.org/1999/xlink" width="72" height="24" viewBox="0 0 72 24">
  <defs>
    <clipPath id="clip-path">
      <rect id="Notification_Background_Mask_" data-name="Notification (Background/Mask)" width="24" height="24" transform="translate(0.12)" fill="none"/>
    </clipPath>
  </defs>
  <g id="Group_13" data-name="Group 13" transform="translate(-13.381 -23)">
    <g id="Chat_Notification" data-name="Chat Notification" transform="translate(13.26 23)">
      <g id="Notification" transform="translate(48)">
        <rect id="Notification_Background_Mask_2" data-name="Notification (Background/Mask)" width="24" height="24" transform="translate(0.12)" fill="none"/>
        <g id="Notification-2" data-name="Notification" clip-path="url(#clip-path)">
          <g id="Group" transform="translate(2.34 2.6)">
            <path id="Vector" d="M0,14.78V6.87a6.87,6.87,0,0,1,13.74,0v7.91H0Z" transform="translate(2.2)" fill="none" stroke="#333" stroke-linecap="round" stroke-linejoin="round" stroke-miterlimit="10" stroke-width="1.2" stroke-dasharray="0 0"/>
            <path id="Vector-2" data-name="Vector" d="M0,0H18.13" transform="translate(0 14.78)" fill="none" stroke="#333" stroke-linecap="round" stroke-linejoin="round" stroke-miterlimit="10" stroke-width="1.2" stroke-dasharray="0 0"/>
            <path id="Vector-3" data-name="Vector" d="M4.04,0A2.021,2.021,0,0,1,2.02,2.02,2.014,2.014,0,0,1,0,0" transform="translate(7.04 16.77)" fill="none" stroke="#333" stroke-linecap="round" stroke-linejoin="round" stroke-miterlimit="10" stroke-width="1.2" stroke-dasharray="0 0"/>
          </g>
          <g id="Ellipse_174" data-name="Ellipse 174" transform="translate(15.12 3)" fill="#f4694c" stroke="#fff" stroke-width="1" stroke-dasharray="0 0">
            <circle cx="3" cy="3" r="3" stroke="none"/>
            <circle cx="3" cy="3" r="2.5" fill="none"/>
          </g>
        </g>
      </g>
      <g id="Chat">
        <rect id="Chat_Background_Mask_2" data-name="Chat (Background/Mask)" width="24" height="24" transform="translate(0.12)" fill="none"/>
        <g id="Chat-2" data-name="Chat" clip-path="url(#clip-path)">
          <g id="Group-2" data-name="Group" transform="translate(8.02 10.42)">
            <path id="Vector-4" data-name="Vector" d="M0,0H4.78" transform="translate(4.78) rotate(180)" fill="none" stroke="#333" stroke-linecap="round" stroke-linejoin="round" stroke-miterlimit="10" stroke-width="1.2" stroke-dasharray="0 0"/>
            <path id="Vector-5" data-name="Vector" d="M0,0H5.29" transform="translate(7.29 3.29) rotate(180)" fill="none" stroke="#333" stroke-linecap="round" stroke-linejoin="round" stroke-miterlimit="10" stroke-width="1.2" stroke-dasharray="0 0"/>
          </g>
          <path id="Vector-6" data-name="Vector" d="M13.021,1.4a8.4,8.4,0,0,0-11.71,11.52L.231,15.6a.754.754,0,0,0,.98.98l2.68-1.08a8.4,8.4,0,0,0,9.13-14.1Z" transform="translate(3.339 3.594)" fill="none" stroke="#333" stroke-linecap="round" stroke-linejoin="round" stroke-miterlimit="10" stroke-width="1.2" stroke-dasharray="0 0"/>
          <g id="Ellipse_174-2" data-name="Ellipse 174" transform="translate(16.12 3)" fill="#5372e7" stroke="#fff" stroke-width="1" stroke-dasharray="0 0">
            <circle cx="3" cy="3" r="3" stroke="none"/>
            <circle cx="3" cy="3" r="2.5" fill="none"/>
          </g>
        </g>
      </g>
    </g>
  </g>
</svg>
