<svg id="dashboard_1_copy" data-name="dashboard 1 copy" xmlns="http://www.w3.org/2000/svg" xmlns:xlink="http://www.w3.org/1999/xlink" width="24" height="24" viewBox="0 0 24 24">
  <defs>
    <clipPath id="clip-path">
      <rect id="dashboard_1_copy_Background_Mask_" data-name="dashboard 1 copy (Background/Mask)" width="24" height="24" fill="none"/>
    </clipPath>
  </defs>
  <rect id="dashboard_1_copy_Background_Mask_2" data-name="dashboard 1 copy (Background/Mask)" width="24" height="24" fill="none"/>
  <g id="dashboard_1_copy-2" data-name="dashboard 1 copy" clip-path="url(#clip-path)">
    <g id="Group_1805" data-name="Group 1805" transform="translate(3 3)">
      <path id="Vector" d="M5.106,0A2.894,2.894,0,0,1,8,2.894V5.106A2.894,2.894,0,0,1,5.106,8H2.894A2.894,2.894,0,0,1,0,5.106V2.894A2.894,2.894,0,0,1,2.894,0Z" fill="none" stroke="#999" stroke-linecap="round" stroke-linejoin="round" stroke-width="1" stroke-dasharray="0 0"/>
      <path id="Vector-2" data-name="Vector" d="M5.106,0A2.894,2.894,0,0,1,8,2.894V5.106A2.894,2.894,0,0,1,5.106,8H2.894A2.894,2.894,0,0,1,0,5.106V2.894A2.894,2.894,0,0,1,2.894,0Z" transform="translate(0 10)" fill="none" stroke="#999" stroke-linecap="round" stroke-linejoin="round" stroke-width="1" stroke-dasharray="0 0"/>
      <path id="Vector-3" data-name="Vector" d="M5.106,0A2.894,2.894,0,0,1,8,2.894V5.106A2.894,2.894,0,0,1,5.106,8H2.894A2.894,2.894,0,0,1,0,5.106V2.894A2.894,2.894,0,0,1,2.894,0Z" transform="translate(10)" fill="none" stroke="#999" stroke-linecap="round" stroke-linejoin="round" stroke-width="1" stroke-dasharray="0 0"/>
      <path id="Vector-4" data-name="Vector" d="M5.106,0A2.894,2.894,0,0,1,8,2.894V5.106A2.894,2.894,0,0,1,5.106,8H2.894A2.894,2.894,0,0,1,0,5.106V2.894A2.894,2.894,0,0,1,2.894,0Z" transform="translate(10 10)" fill="none" stroke="#999" stroke-linecap="round" stroke-linejoin="round" stroke-width="1" stroke-dasharray="0 0"/>
    </g>
  </g>
</svg>
