<svg id="_61" data-name="61" xmlns="http://www.w3.org/2000/svg" width="24" height="24" viewBox="0 0 24 24">
  <rect id="_61_Background_Mask_" data-name="61 (Background/Mask)" width="24" height="24" fill="none"/>
  <g id="Group_13" data-name="Group 13">
    <g id="Group_1708" data-name="Group 1708" transform="translate(2.6 3.37)">
      <path id="Vector" d="M3.06,6.12A3.06,3.06,0,1,1,6.12,3.06,3.06,3.06,0,0,1,3.06,6.12Z" transform="matrix(0.613, -0.79, 0.79, 0.613, 7.857, 4.836)" fill="none" stroke="#999" stroke-linecap="round" stroke-linejoin="round" stroke-miterlimit="10" stroke-width="1.2" stroke-dasharray="0 0"/>
      <path id="Vector-2" data-name="Vector" d="M0,5.91a5.91,5.91,0,0,1,11.82,0" transform="translate(6.24 9.58)" fill="none" stroke="#999" stroke-linecap="round" stroke-linejoin="round" stroke-miterlimit="10" stroke-width="1.2" stroke-dasharray="0 0"/>
      <path id="Vector-3" data-name="Vector" d="M2.14,4.28A2.14,2.14,0,1,1,4.28,2.14,2.14,2.14,0,0,1,2.14,4.28Z" transform="translate(1.231 6.094) rotate(-61.81)" fill="none" stroke="#999" stroke-linecap="round" stroke-linejoin="round" stroke-miterlimit="10" stroke-width="1.2" stroke-dasharray="0 0"/>
      <path id="Vector-4" data-name="Vector" d="M0,4.13A4.129,4.129,0,0,1,7.91,2.47" transform="translate(0 8.91)" fill="none" stroke="#999" stroke-linecap="round" stroke-linejoin="round" stroke-miterlimit="10" stroke-width="1.2" stroke-dasharray="0 0"/>
    </g>
    <g id="_61_Background_Mask_2" data-name="61 (Background/Mask)">
      <rect id="_61_Background_Mask_3" data-name="61 (Background/Mask)" width="24" height="24" fill="none"/>
    </g>
  </g>
</svg>
